<?xml version="1.0" encoding="utf-8"?>
<!-- Generator: Adobe Illustrator 19.2.1, SVG Export Plug-In . SVG Version: 6.00 Build 0)  -->
<svg version="1.1" baseProfile="tiny" id="Laag_1" xmlns="http://www.w3.org/2000/svg" xmlns:xlink="http://www.w3.org/1999/xlink"
	 x="0px" y="0px" viewBox="0 0 240.7 230.8" xml:space="preserve">
<path fill="#3C3C3B" d="M229.4,230.8h-218c-6.2,0-11.4-5.1-11.4-11.4V11.4C0,5.1,5.1,0,11.4,0h218c6.2,0,11.4,5.1,11.4,11.4v208.1
	C240.7,225.7,235.6,230.8,229.4,230.8z"/>
<path fill="#FFFFFF" d="M179.9,200.2c-7.5,0-14.5-4.5-17.2-11.7l-6.5-18H84.8l-6.7,18c-2.7,7.2-9.7,11.7-17.5,11.7
	c-11.2,0-18.7-9.5-18.7-19c0-2.2,0.2-4.5,1.2-6.7L91.8,49.4C96,38.2,107.3,30.7,119,30.7c12.7-1,25.5,6.5,30.2,18.7l48.4,125.1
	c0.7,2.2,1.2,4.5,1.2,6.7C198.9,190.5,191.4,200.2,179.9,200.2z"/>
</svg>
